<svg xmlns="http://www.w3.org/2000/svg" width="1200" height="700" viewBox="0 0 1200 700">
  <!-- Page background -->
  <rect width="1200" height="700" fill="#1e293b"/>

  <!-- ── Browser chrome ── -->
  <rect x="20" y="16" width="1160" height="668" rx="10" fill="#0f172a" stroke="#334155" stroke-width="1.5"/>

  <!-- Browser top bar -->
  <rect x="20" y="16" width="1160" height="40" rx="10" fill="#1e293b"/>
  <rect x="20" y="40" width="1160" height="16" fill="#1e293b"/>

  <!-- Window control dots -->
  <circle cx="50" cy="36" r="6" fill="#ef4444"/>
  <circle cx="72" cy="36" r="6" fill="#f59e0b"/>
  <circle cx="94" cy="36" r="6" fill="#22c55e"/>

  <!-- Address bar -->
  <rect x="200" y="24" width="600" height="24" rx="4" fill="#0f172a" stroke="#334155" stroke-width="1"/>
  <text x="500" y="41" font-family="Segoe UI, Arial, sans-serif" font-size="12" fill="#64748b"
        text-anchor="middle">http://localhost:3000</text>

  <!-- ── Sidebar ── -->
  <rect x="20" y="56" width="140" height="628" fill="#0f172a"/>

  <!-- Logo area -->
  <rect x="30" y="66" width="120" height="36" rx="6" fill="#1d4ed8"/>
  <text x="90" y="89" font-family="Segoe UI, Arial, sans-serif" font-size="12" font-weight="bold"
        fill="#ffffff" text-anchor="middle">Nexora</text>

  <!-- Sidebar menu items -->
  <rect x="30" y="116" width="120" height="30" rx="4" fill="#1d4ed8"/>
  <text x="90" y="136" font-family="Segoe UI, Arial, sans-serif" font-size="11" fill="#ffffff"
        text-anchor="middle">Dashboard</text>

  <rect x="30" y="154" width="120" height="30" rx="4" fill="#1e293b"/>
  <text x="90" y="174" font-family="Segoe UI, Arial, sans-serif" font-size="11" fill="#94a3b8"
        text-anchor="middle">Conversations</text>

  <rect x="30" y="192" width="120" height="30" rx="4" fill="#1e293b"/>
  <text x="90" y="212" font-family="Segoe UI, Arial, sans-serif" font-size="11" fill="#94a3b8"
        text-anchor="middle">Tickets</text>

  <rect x="30" y="230" width="120" height="30" rx="4" fill="#1e293b"/>
  <text x="90" y="250" font-family="Segoe UI, Arial, sans-serif" font-size="11" fill="#94a3b8"
        text-anchor="middle">Analytics</text>

  <rect x="30" y="268" width="120" height="30" rx="4" fill="#1e293b"/>
  <text x="90" y="288" font-family="Segoe UI, Arial, sans-serif" font-size="11" fill="#94a3b8"
        text-anchor="middle">Knowledge Base</text>

  <rect x="30" y="306" width="120" height="30" rx="4" fill="#1e293b"/>
  <text x="90" y="326" font-family="Segoe UI, Arial, sans-serif" font-size="11" fill="#94a3b8"
        text-anchor="middle">API Tester</text>

  <rect x="30" y="344" width="120" height="30" rx="4" fill="#1e293b"/>
  <text x="90" y="364" font-family="Segoe UI, Arial, sans-serif" font-size="11" fill="#94a3b8"
        text-anchor="middle">Settings</text>

  <!-- Sidebar footer -->
  <rect x="30" y="630" width="120" height="30" rx="4" fill="#1e293b"/>
  <text x="90" y="650" font-family="Segoe UI, Arial, sans-serif" font-size="10" fill="#475569"
        text-anchor="middle">Mehreen Asghar</text>

  <!-- ── Main content area ── -->
  <rect x="160" y="56" width="1020" height="628" fill="#f8fafc"/>

  <!-- Header bar -->
  <rect x="160" y="56" width="1020" height="52" fill="#ffffff" stroke="#e2e8f0" stroke-width="1"/>
  <text x="230" y="87" font-family="Segoe UI, Arial, sans-serif" font-size="16" font-weight="bold"
        fill="#0f172a">Dashboard Overview</text>
  <!-- Status badge -->
  <rect x="960" y="68" width="90" height="26" rx="13" fill="#dcfce7"/>
  <text x="1005" y="86" font-family="Segoe UI, Arial, sans-serif" font-size="11" fill="#16a34a"
        text-anchor="middle" font-weight="bold">System Online</text>
  <!-- Refresh button -->
  <rect x="1062" y="68" width="80" height="26" rx="6" fill="#1d4ed8"/>
  <text x="1102" y="86" font-family="Segoe UI, Arial, sans-serif" font-size="11" fill="#ffffff"
        text-anchor="middle">Refresh</text>

  <!-- ── Metric Cards Row ── -->
  <!-- Card 1: Total Conversations -->
  <rect x="180" y="128" width="220" height="110" rx="10" fill="#ffffff" stroke="#e2e8f0" stroke-width="1"/>
  <text x="200" y="155" font-family="Segoe UI, Arial, sans-serif" font-size="11" fill="#64748b">Total Conversations</text>
  <text x="200" y="200" font-family="Segoe UI, Arial, sans-serif" font-size="34" font-weight="bold" fill="#0f172a">1,284</text>
  <text x="200" y="224" font-family="Segoe UI, Arial, sans-serif" font-size="11" fill="#22c55e">+12.4% this week</text>

  <!-- Card 2: Open Tickets -->
  <rect x="420" y="128" width="220" height="110" rx="10" fill="#ffffff" stroke="#e2e8f0" stroke-width="1"/>
  <text x="440" y="155" font-family="Segoe UI, Arial, sans-serif" font-size="11" fill="#64748b">Open Tickets</text>
  <text x="440" y="200" font-family="Segoe UI, Arial, sans-serif" font-size="34" font-weight="bold" fill="#f59e0b">47</text>
  <text x="440" y="224" font-family="Segoe UI, Arial, sans-serif" font-size="11" fill="#ef4444">3 escalated</text>

  <!-- Card 3: Avg Response Time -->
  <rect x="660" y="128" width="220" height="110" rx="10" fill="#ffffff" stroke="#e2e8f0" stroke-width="1"/>
  <text x="680" y="155" font-family="Segoe UI, Arial, sans-serif" font-size="11" fill="#64748b">Avg Response Time</text>
  <text x="680" y="200" font-family="Segoe UI, Arial, sans-serif" font-size="34" font-weight="bold" fill="#0f172a">1.2s</text>
  <text x="680" y="224" font-family="Segoe UI, Arial, sans-serif" font-size="11" fill="#22c55e">-0.3s from last week</text>

  <!-- Card 4: AI Resolution Rate -->
  <rect x="900" y="128" width="220" height="110" rx="10" fill="#ffffff" stroke="#e2e8f0" stroke-width="1"/>
  <text x="920" y="155" font-family="Segoe UI, Arial, sans-serif" font-size="11" fill="#64748b">AI Resolution Rate</text>
  <text x="920" y="200" font-family="Segoe UI, Arial, sans-serif" font-size="34" font-weight="bold" fill="#1d4ed8">87%</text>
  <text x="920" y="224" font-family="Segoe UI, Arial, sans-serif" font-size="11" fill="#22c55e">+5% improvement</text>

  <!-- ── Recent Conversations Table ── -->
  <rect x="180" y="258" width="960" height="400" rx="10" fill="#ffffff" stroke="#e2e8f0" stroke-width="1"/>

  <!-- Table header -->
  <rect x="180" y="258" width="960" height="40" rx="10" fill="#f1f5f9"/>
  <rect x="180" y="278" width="960" height="20" fill="#f1f5f9"/>
  <text x="210" y="283" font-family="Segoe UI, Arial, sans-serif" font-size="12" font-weight="bold" fill="#64748b">Recent Conversations</text>

  <!-- Column headers -->
  <text x="210" y="318" font-family="Segoe UI, Arial, sans-serif" font-size="11" font-weight="bold" fill="#64748b">ID</text>
  <text x="280" y="318" font-family="Segoe UI, Arial, sans-serif" font-size="11" font-weight="bold" fill="#64748b">Customer</text>
  <text x="460" y="318" font-family="Segoe UI, Arial, sans-serif" font-size="11" font-weight="bold" fill="#64748b">Channel</text>
  <text x="590" y="318" font-family="Segoe UI, Arial, sans-serif" font-size="11" font-weight="bold" fill="#64748b">Status</text>
  <text x="720" y="318" font-family="Segoe UI, Arial, sans-serif" font-size="11" font-weight="bold" fill="#64748b">Sentiment</text>
  <text x="860" y="318" font-family="Segoe UI, Arial, sans-serif" font-size="11" font-weight="bold" fill="#64748b">Timestamp</text>
  <line x1="180" y1="324" x2="1140" y2="324" stroke="#e2e8f0" stroke-width="1"/>

  <!-- Row 1 -->
  <rect x="180" y="325" width="960" height="38" fill="#ffffff"/>
  <text x="210" y="349" font-family="Segoe UI, monospace, Arial, sans-serif" font-size="11" fill="#64748b">#1042</text>
  <text x="280" y="349" font-family="Segoe UI, Arial, sans-serif" font-size="12" fill="#0f172a">Alice Johnson</text>
  <rect x="450" y="334" width="70" height="20" rx="4" fill="#dbeafe"/>
  <text x="485" y="348" font-family="Segoe UI, Arial, sans-serif" font-size="10" fill="#1d4ed8" text-anchor="middle">Email</text>
  <rect x="580" y="334" width="70" height="20" rx="4" fill="#dcfce7"/>
  <text x="615" y="348" font-family="Segoe UI, Arial, sans-serif" font-size="10" fill="#16a34a" text-anchor="middle">Resolved</text>
  <text x="720" y="349" font-family="Segoe UI, Arial, sans-serif" font-size="11" fill="#22c55e">Positive</text>
  <text x="860" y="349" font-family="Segoe UI, Arial, sans-serif" font-size="11" fill="#64748b">2026-03-14 09:12</text>
  <line x1="180" y1="363" x2="1140" y2="363" stroke="#f1f5f9" stroke-width="1"/>

  <!-- Row 2 -->
  <rect x="180" y="364" width="960" height="38" fill="#f8fafc"/>
  <text x="210" y="388" font-family="Segoe UI, monospace, Arial, sans-serif" font-size="11" fill="#64748b">#1041</text>
  <text x="280" y="388" font-family="Segoe UI, Arial, sans-serif" font-size="12" fill="#0f172a">Bob Martinez</text>
  <rect x="450" y="373" width="80" height="20" rx="4" fill="#d1fae5"/>
  <text x="490" y="387" font-family="Segoe UI, Arial, sans-serif" font-size="10" fill="#047857" text-anchor="middle">WhatsApp</text>
  <rect x="580" y="373" width="70" height="20" rx="4" fill="#fef9c3"/>
  <text x="615" y="387" font-family="Segoe UI, Arial, sans-serif" font-size="10" fill="#a16207" text-anchor="middle">Open</text>
  <text x="720" y="388" font-family="Segoe UI, Arial, sans-serif" font-size="11" fill="#f59e0b">Neutral</text>
  <text x="860" y="388" font-family="Segoe UI, Arial, sans-serif" font-size="11" fill="#64748b">2026-03-14 09:05</text>
  <line x1="180" y1="402" x2="1140" y2="402" stroke="#e2e8f0" stroke-width="1"/>

  <!-- Row 3 -->
  <rect x="180" y="403" width="960" height="38" fill="#ffffff"/>
  <text x="210" y="427" font-family="Segoe UI, monospace, Arial, sans-serif" font-size="11" fill="#64748b">#1040</text>
  <text x="280" y="427" font-family="Segoe UI, Arial, sans-serif" font-size="12" fill="#0f172a">Carol Singh</text>
  <rect x="450" y="412" width="70" height="20" rx="4" fill="#ede9fe"/>
  <text x="485" y="426" font-family="Segoe UI, Arial, sans-serif" font-size="10" fill="#6d28d9" text-anchor="middle">Web Form</text>
  <rect x="580" y="412" width="80" height="20" rx="4" fill="#fee2e2"/>
  <text x="620" y="426" font-family="Segoe UI, Arial, sans-serif" font-size="10" fill="#dc2626" text-anchor="middle">Escalated</text>
  <text x="720" y="427" font-family="Segoe UI, Arial, sans-serif" font-size="11" fill="#ef4444">Negative</text>
  <text x="860" y="427" font-family="Segoe UI, Arial, sans-serif" font-size="11" fill="#64748b">2026-03-14 08:47</text>
  <line x1="180" y1="441" x2="1140" y2="441" stroke="#f1f5f9" stroke-width="1"/>

  <!-- Row 4 -->
  <rect x="180" y="442" width="960" height="38" fill="#f8fafc"/>
  <text x="210" y="466" font-family="Segoe UI, monospace, Arial, sans-serif" font-size="11" fill="#64748b">#1039</text>
  <text x="280" y="466" font-family="Segoe UI, Arial, sans-serif" font-size="12" fill="#0f172a">David Kim</text>
  <rect x="450" y="451" width="70" height="20" rx="4" fill="#dbeafe"/>
  <text x="485" y="465" font-family="Segoe UI, Arial, sans-serif" font-size="10" fill="#1d4ed8" text-anchor="middle">Email</text>
  <rect x="580" y="451" width="70" height="20" rx="4" fill="#dcfce7"/>
  <text x="615" y="465" font-family="Segoe UI, Arial, sans-serif" font-size="10" fill="#16a34a" text-anchor="middle">Resolved</text>
  <text x="720" y="466" font-family="Segoe UI, Arial, sans-serif" font-size="11" fill="#22c55e">Positive</text>
  <text x="860" y="466" font-family="Segoe UI, Arial, sans-serif" font-size="11" fill="#64748b">2026-03-14 08:30</text>
  <line x1="180" y1="480" x2="1140" y2="480" stroke="#e2e8f0" stroke-width="1"/>

  <!-- Row 5 -->
  <rect x="180" y="481" width="960" height="38" fill="#ffffff"/>
  <text x="210" y="505" font-family="Segoe UI, monospace, Arial, sans-serif" font-size="11" fill="#64748b">#1038</text>
  <text x="280" y="505" font-family="Segoe UI, Arial, sans-serif" font-size="12" fill="#0f172a">Eva Nguyen</text>
  <rect x="450" y="490" width="80" height="20" rx="4" fill="#d1fae5"/>
  <text x="490" y="504" font-family="Segoe UI, Arial, sans-serif" font-size="10" fill="#047857" text-anchor="middle">WhatsApp</text>
  <rect x="580" y="490" width="70" height="20" rx="4" fill="#fef9c3"/>
  <text x="615" y="504" font-family="Segoe UI, Arial, sans-serif" font-size="10" fill="#a16207" text-anchor="middle">Open</text>
  <text x="720" y="505" font-family="Segoe UI, Arial, sans-serif" font-size="11" fill="#f59e0b">Neutral</text>
  <text x="860" y="505" font-family="Segoe UI, Arial, sans-serif" font-size="11" fill="#64748b">2026-03-14 08:15</text>

  <!-- Pagination / footer strip -->
  <rect x="180" y="618" width="960" height="40" rx="0" fill="#f8fafc" stroke="#e2e8f0" stroke-width="1"/>
  <rect x="180" y="638" width="960" height="20" fill="#f8fafc"/>
  <text x="220" y="643" font-family="Segoe UI, Arial, sans-serif" font-size="11" fill="#64748b">Showing 5 of 1,284 conversations</text>
  <rect x="1020" y="626" width="60" height="24" rx="4" fill="#1d4ed8"/>
  <text x="1050" y="643" font-family="Segoe UI, Arial, sans-serif" font-size="11" fill="#ffffff" text-anchor="middle">Next →</text>

  <!-- Page title label -->
  <text x="600" y="688" font-family="Segoe UI, Arial, sans-serif" font-size="10" fill="#475569"
        text-anchor="middle">Nexora Support Dashboard Preview — Hackathon 5 | Mehreen Asghar</text>
</svg>
